<?xml version="1.0" ?><!DOCTYPE svg  PUBLIC '-//W3C//DTD SVG 1.1//EN'  'http://www.w3.org/Graphics/SVG/1.1/DTD/svg11.dtd'><svg enable-background="new 0 0 24 24" height="24px" id="Layer_1" version="1.1" viewBox="0 0 24 24" width="24px" xml:space="preserve" xmlns="http://www.w3.org/2000/svg" xmlns:xlink="http://www.w3.org/1999/xlink"><g><path d="M10,10.7c0.2,0.2,0.5,0.1,0.7-0.1c0.2-0.2,0.1-0.5-0.1-0.7L8,8.3C7.8,8.1,7.5,8.2,7.3,8.4C7.2,8.6,7.2,8.9,7.5,9.1L10,10.7   z"/><path d="M16,8.3l-2.5,1.7c-0.2,0.2-0.3,0.5-0.1,0.7s0.5,0.3,0.7,0.1l2.5-1.7c0.2-0.2,0.3-0.5,0.1-0.7C16.5,8.2,16.2,8.1,16,8.3z"/><path d="M12,14c-2,0-3.8,1.2-4.6,3h1.1c0.7-1.2,2-2,3.4-2s2.8,0.8,3.4,2h1.1C15.8,15.2,14,14,12,14z"/><path d="M24,0l-5.1,2.2C16.9,0.8,14.6,0,12,0S7.1,0.8,5.1,2.2L0,0l2.2,5.1C0.8,7.1,0,9.4,0,12c0,6.6,5.4,12,12,12s12-5.4,12-12   c0-2.6-0.8-4.9-2.2-6.9L24,0z M22.1,1.9l-1,2.3c-0.4-0.5-0.8-0.9-1.3-1.3L22.1,1.9z M1.9,1.9l2.3,1C3.7,3.3,3.3,3.7,2.9,4.2   L1.9,1.9z M22,12c0,5.5-4.5,10-10,10S2,17.5,2,12S6.5,2,12,2S22,6.5,22,12z"/></g></svg>