<?xml version="1.0" ?><svg data-name="Layer 1" id="Layer_1" viewBox="0 0 64 64" xmlns="http://www.w3.org/2000/svg"><title/><path d="M32,37.63A18.82,18.82,0,1,0,13.27,18.81,18.79,18.79,0,0,0,32,37.63ZM32,5.57A13.25,13.25,0,1,1,18.83,18.81,13.22,13.22,0,0,1,32,5.57Z" data-name="&lt;Compound Path&gt;" id="_Compound_Path_"/><path d="M12.36,43.69l17.57,6.45L32,50.9l2.07-.76,17.57-6.45A7.28,7.28,0,0,1,58,50.9V58H6V50.9a7.28,7.28,0,0,1,6.36-7.21m38.37-6.06L32,44.51,13.27,37.63A13.27,13.27,0,0,0,0,50.9V64H64V50.9A13.27,13.27,0,0,0,50.73,37.63Z"/></svg>